<svg width="595" height="842" viewBox="0 0 595 842" fill="none" xmlns="http://www.w3.org/2000/svg">
<path fill-rule="evenodd" clip-rule="evenodd" d="M185.123 183.173C171.189 181.616 156.811 181.616 142.877 183.173C129.042 184.719 117.795 195.601 116.148 209.689C114.479 223.959 114.479 238.375 116.148 252.645C117.795 266.732 129.042 277.614 142.877 279.16C156.811 280.717 171.189 280.717 185.123 279.16C198.958 277.614 210.204 266.732 211.852 252.645C213.521 238.375 213.521 223.959 211.852 209.689C210.204 195.601 198.958 184.719 185.123 183.173ZM149.137 246.13C148.149 236.179 148.149 226.154 149.137 216.204C158.959 215.272 169.041 215.272 178.863 216.204C179.851 226.154 179.851 236.179 178.863 246.13C169.041 247.061 158.959 247.061 149.137 246.13Z" fill="#9B9A9A"/>
<path fill-rule="evenodd" clip-rule="evenodd" d="M319.123 183.173C305.189 181.616 290.811 181.616 276.877 183.173C263.042 184.719 251.795 195.601 250.148 209.689C248.479 223.959 248.479 238.375 250.148 252.645C251.795 266.732 263.042 277.614 276.877 279.16C290.811 280.717 305.189 280.717 319.123 279.16C332.958 277.614 344.204 266.732 345.852 252.645C347.521 238.375 347.521 223.959 345.852 209.689C344.204 195.601 332.958 184.719 319.123 183.173ZM283.137 246.13C282.149 236.179 282.149 226.154 283.137 216.204C292.959 215.272 303.041 215.272 312.863 216.204C313.851 226.154 313.851 236.179 312.863 246.13C303.041 247.061 292.959 247.061 283.137 246.13Z" fill="#9B9A9A"/>
<path fill-rule="evenodd" clip-rule="evenodd" d="M410.877 183.173C424.811 181.616 439.189 181.616 453.123 183.173C466.958 184.719 478.204 195.601 479.852 209.689C481.521 223.959 481.521 238.375 479.852 252.645C478.204 266.732 466.958 277.614 453.123 279.16C439.189 280.717 424.811 280.717 410.877 279.16C397.042 277.614 385.795 266.732 384.148 252.645C382.479 238.375 382.479 223.959 384.148 209.689C385.795 195.601 397.042 184.719 410.877 183.173ZM417.137 216.204C416.149 226.154 416.149 236.179 417.137 246.13C426.959 247.061 437.041 247.061 446.863 246.13C447.851 236.179 447.851 226.154 446.863 216.204C437.041 215.272 426.959 215.272 417.137 216.204Z" fill="#9B9A9A"/>
<path fill-rule="evenodd" clip-rule="evenodd" d="M185.123 306.006C171.189 304.449 156.811 304.449 142.877 306.006C129.042 307.553 117.795 318.435 116.148 332.522C114.479 346.792 114.479 361.208 116.148 375.478C117.795 389.565 129.042 400.447 142.877 401.993C156.811 403.551 171.189 403.551 185.123 401.993C198.958 400.447 210.204 389.565 211.852 375.478C213.521 361.208 213.521 346.792 211.852 332.522C210.204 318.435 198.958 307.553 185.123 306.006ZM149.137 368.963C148.149 359.012 148.149 348.988 149.137 339.037C158.959 338.106 169.041 338.106 178.863 339.037C179.851 348.988 179.851 359.012 178.863 368.963C169.041 369.894 158.959 369.894 149.137 368.963Z" fill="#9B9A9A"/>
<path fill-rule="evenodd" clip-rule="evenodd" d="M276.877 306.006C290.811 304.449 305.189 304.449 319.123 306.006C332.958 307.553 344.204 318.435 345.852 332.522C347.521 346.792 347.521 361.208 345.852 375.478C344.204 389.565 332.958 400.447 319.123 401.993C305.189 403.551 290.811 403.551 276.877 401.993C263.042 400.447 251.795 389.565 250.148 375.478C248.479 361.208 248.479 346.792 250.148 332.522C251.795 318.435 263.042 307.553 276.877 306.006ZM283.137 339.037C282.149 348.988 282.149 359.012 283.137 368.963C292.959 369.894 303.041 369.894 312.863 368.963C313.851 359.012 313.851 348.988 312.863 339.037C303.041 338.106 292.959 338.106 283.137 339.037Z" fill="#9B9A9A"/>
<path fill-rule="evenodd" clip-rule="evenodd" d="M453.123 306.006C439.189 304.449 424.811 304.449 410.877 306.006C397.042 307.553 385.795 318.435 384.148 332.522C382.479 346.792 382.479 361.208 384.148 375.478C385.795 389.565 397.042 400.447 410.877 401.993C424.811 403.551 439.189 403.551 453.123 401.993C466.958 400.447 478.204 389.565 479.852 375.478C481.521 361.208 481.521 346.792 479.852 332.522C478.204 318.435 466.958 307.553 453.123 306.006ZM417.137 368.963C416.149 359.012 416.149 348.988 417.137 339.037C426.959 338.106 437.041 338.106 446.863 339.037C447.851 348.988 447.851 359.012 446.863 368.963C437.041 369.894 426.959 369.894 417.137 368.963Z" fill="#9B9A9A"/>
<path fill-rule="evenodd" clip-rule="evenodd" d="M142.877 428.84C156.811 427.282 171.189 427.282 185.123 428.84C198.958 430.386 210.204 441.268 211.852 455.355C213.521 469.625 213.521 484.041 211.852 498.311C210.204 512.399 198.958 523.28 185.123 524.827C171.189 526.384 156.811 526.384 142.877 524.827C129.042 523.28 117.795 512.399 116.148 498.311C114.479 484.041 114.479 469.625 116.148 455.355C117.795 441.268 129.042 430.386 142.877 428.84ZM149.137 461.87C148.149 471.821 148.149 481.845 149.137 491.796C158.959 492.728 169.041 492.728 178.863 491.796C179.851 481.845 179.851 471.821 178.863 461.87C169.041 460.939 158.959 460.939 149.137 461.87Z" fill="#9B9A9A"/>
<path fill-rule="evenodd" clip-rule="evenodd" d="M319.123 428.84C305.189 427.282 290.811 427.282 276.877 428.84C263.042 430.386 251.795 441.268 250.148 455.355C248.479 469.625 248.479 484.041 250.148 498.311C251.795 512.399 263.042 523.28 276.877 524.827C290.811 526.384 305.189 526.384 319.123 524.827C332.958 523.28 344.204 512.399 345.852 498.311C347.521 484.041 347.521 469.625 345.852 455.355C344.204 441.268 332.958 430.386 319.123 428.84ZM283.137 491.796C282.149 481.845 282.149 471.821 283.137 461.87C292.959 460.939 303.041 460.939 312.863 461.87C313.851 471.821 313.851 481.845 312.863 491.796C303.041 492.728 292.959 492.728 283.137 491.796Z" fill="#9B9A9A"/>
<path fill-rule="evenodd" clip-rule="evenodd" d="M276.877 551.673C290.811 550.116 305.189 550.116 319.123 551.673C332.958 553.219 344.204 564.101 345.852 578.189C347.521 592.459 347.521 606.875 345.852 621.145C344.204 635.232 332.958 646.114 319.123 647.66C305.189 649.217 290.811 649.217 276.877 647.66C263.042 646.114 251.795 635.232 250.148 621.145C248.479 606.875 248.479 592.459 250.148 578.189C251.795 564.101 263.042 553.219 276.877 551.673ZM283.137 584.704C282.149 594.654 282.149 604.679 283.137 614.63C292.959 615.561 303.041 615.561 312.863 614.63C313.851 604.679 313.851 594.654 312.863 584.704C303.041 583.772 292.959 583.772 283.137 584.704Z" fill="#9B9A9A"/>
<path fill-rule="evenodd" clip-rule="evenodd" d="M453.123 428.84C439.189 427.282 424.811 427.282 410.877 428.84C397.042 430.386 385.795 441.268 384.148 455.355C382.479 469.625 382.479 484.041 384.148 498.311C385.795 512.399 397.042 523.28 410.877 524.827C424.811 526.384 439.189 526.384 453.123 524.827C466.958 523.28 478.204 512.399 479.852 498.311C481.521 484.041 481.521 469.625 479.852 455.355C478.204 441.268 466.958 430.386 453.123 428.84ZM417.137 491.796C416.149 481.845 416.149 471.821 417.137 461.87C426.959 460.939 437.041 460.939 446.863 461.87C447.851 471.821 447.851 481.845 446.863 491.796C437.041 492.728 426.959 492.728 417.137 491.796Z" fill="#9B9A9A"/>
</svg>
