<svg width="595" height="842" viewBox="0 0 595 842" fill="none" xmlns="http://www.w3.org/2000/svg">
<path fill-rule="evenodd" clip-rule="evenodd" d="M186.75 226.312C195.966 226.312 203.438 233.784 203.438 243V280.105C266.355 274.502 329.645 274.502 392.562 280.105V243C392.562 233.784 400.034 226.312 409.25 226.312C418.466 226.312 425.938 233.784 425.938 243V283.416C459.158 288.113 485.402 314.388 489.845 347.905L491.771 362.433C499.87 423.539 499.171 485.49 489.693 546.398C484.998 576.57 460.486 599.744 430.099 602.741L403.554 605.359C333.355 612.282 262.644 612.282 192.444 605.359L165.9 602.741C135.512 599.744 111 576.57 106.305 546.398C96.8278 485.49 96.1283 423.539 104.228 362.433L106.154 347.905C110.597 314.388 136.842 288.112 170.062 283.415V243C170.062 233.784 177.534 226.312 186.75 226.312ZM196.655 314.262C264.054 307.616 331.944 307.616 399.344 314.262L419.49 316.249C438.775 318.151 454.213 333.08 456.759 352.291L458.685 366.819C459.358 371.894 459.967 376.976 460.511 382.062H135.487C136.032 376.976 136.641 371.894 137.314 366.819L139.239 352.291C141.786 333.08 157.223 318.151 176.509 316.249L196.655 314.262ZM132.834 415.438C130.65 457.447 132.802 499.614 139.284 541.266C141.638 556.4 153.933 568.024 169.175 569.527L195.72 572.145C263.741 578.853 332.257 578.853 400.279 572.145L426.823 569.527C442.065 568.024 454.36 556.4 456.715 541.266C463.196 499.614 465.349 457.447 463.164 415.438H132.834Z" fill="#D9D9D9"/>
</svg>
