<svg width="595" height="842" viewBox="0 0 595 842" fill="none" xmlns="http://www.w3.org/2000/svg">
<path fill-rule="evenodd" clip-rule="evenodd" d="M187.292 227.635C196.422 227.635 203.823 235.037 203.823 244.167V280.924C266.151 275.373 328.849 275.373 391.177 280.924V244.167C391.177 235.037 398.578 227.635 407.708 227.635C416.838 227.635 424.24 235.037 424.24 244.167V284.204C457.149 288.857 483.147 314.887 487.549 348.089L489.456 362.482C497.48 423.015 496.787 484.387 487.398 544.724C482.747 574.613 458.465 597.571 428.362 600.539L402.066 603.133C332.524 609.991 262.475 609.991 192.933 603.133L166.637 600.539C136.534 597.571 112.251 574.613 107.6 544.724C98.2114 484.387 97.5184 423.015 105.542 362.482L107.45 348.09C111.851 314.886 137.851 288.856 170.76 284.204V244.167C170.76 235.037 178.162 227.635 187.292 227.635ZM197.104 314.762C263.872 308.177 331.127 308.177 397.895 314.762L417.853 316.73C436.957 318.614 452.25 333.403 454.773 352.434L456.681 366.826C457.347 371.854 457.95 376.888 458.49 381.927H136.509C137.049 376.888 137.652 371.854 138.318 366.826L140.226 352.434C142.749 333.403 158.042 318.614 177.146 316.73L197.104 314.762ZM133.881 414.99C131.717 456.606 133.849 498.378 140.27 539.64C142.603 554.632 154.782 566.147 169.882 567.637L196.177 570.23C263.562 576.875 331.437 576.875 398.821 570.23L425.117 567.637C440.216 566.147 452.396 554.632 454.729 539.64C461.15 498.378 463.282 456.606 461.118 414.99H133.881Z" fill="#9B9A9A"/>
</svg>
