<svg width="595" height="842" viewBox="0 0 595 842" fill="none" xmlns="http://www.w3.org/2000/svg">
<g clip-path="url(#clip0_60_173)">
<rect x="49" y="182" width="497" height="477" rx="150" fill="#83A189" fill-opacity="0.2"/>
<path d="M314.094 475.834L374.266 420.761C380.747 414.83 391.253 414.83 397.734 420.761C404.214 426.692 404.214 436.308 397.734 442.239L309.234 523.239C302.753 529.17 292.247 529.17 285.766 523.239L197.266 442.239C190.786 436.308 190.786 426.692 197.266 420.761C203.747 414.83 214.253 414.83 220.734 420.761L280.906 475.834L280.906 279.625C280.906 271.237 288.336 264.438 297.5 264.438C306.664 264.438 314.094 271.237 314.094 279.625L314.094 475.834Z" fill="#83A189"/>
</g>
<defs>
<clipPath id="clip0_60_173">
<rect x="49" y="182" width="497" height="477" rx="150" fill="white"/>
</clipPath>
</defs>
</svg>
