<svg width="595" height="842" viewBox="0 0 595 842" fill="none" xmlns="http://www.w3.org/2000/svg">
<path fill-rule="evenodd" clip-rule="evenodd" d="M438.915 265.134C344.931 254.63 250.069 254.63 156.085 265.134C149.726 265.845 146.663 273.302 150.688 278.277L233.777 380.988C263.542 417.782 279.781 463.675 279.781 511.001V579.259L315.219 605.246V511.001C315.219 463.675 331.458 417.782 361.223 380.988L444.312 278.277C448.337 273.302 445.274 265.845 438.915 265.134ZM152.149 229.916C248.749 219.12 346.251 219.12 442.851 229.916C477.035 233.737 493.497 273.823 471.863 300.565L388.774 403.276C364.111 433.762 350.656 471.788 350.656 511.001V640.212C350.656 646.89 346.903 653 340.947 656.018C334.991 659.036 327.844 658.45 322.459 654.501L251.584 602.526C247.033 599.188 244.344 593.882 244.344 588.238V511.001C244.344 471.788 230.889 433.762 206.226 403.276L123.137 300.565C101.503 273.823 117.965 233.737 152.149 229.916Z" fill="#9B9A9A"/>
</svg>
