<svg width="595" height="842" viewBox="0 0 595 842" fill="none" xmlns="http://www.w3.org/2000/svg">
<rect x="48" y="182" width="516" height="477" rx="180" fill="#DC7B78" fill-opacity="0.2"/>
<path d="M220.402 393.949C213.218 400.325 201.571 400.325 194.388 393.949C187.204 387.573 187.204 377.235 194.388 370.859L292.493 283.782C299.677 277.406 311.323 277.406 318.507 283.782L416.612 370.859C423.796 377.235 423.796 387.573 416.612 393.949C409.429 400.325 397.782 400.325 390.598 393.949L323.895 334.744L323.895 545.673C323.895 554.69 315.659 562 305.5 562C295.341 562 287.105 554.69 287.105 545.673L287.105 334.744L220.402 393.949Z" fill="#E76B39"/>
</svg>
