<svg width="595" height="842" viewBox="0 0 595 842" fill="none" xmlns="http://www.w3.org/2000/svg">
<path d="M281.344 571.292C281.344 562.369 288.577 555.135 297.5 555.135H426.75C429.724 555.135 432.135 552.724 432.135 549.75L432.135 291.25C432.135 288.276 429.724 285.865 426.75 285.865L297.5 285.865C288.577 285.865 281.344 278.631 281.344 269.708C281.344 260.786 288.577 253.552 297.5 253.552H426.75C447.57 253.552 464.448 270.43 464.448 291.25V549.75C464.448 570.57 447.57 587.448 426.75 587.448H297.5C288.577 587.448 281.344 580.215 281.344 571.292Z" fill="white"/>
<path d="M375.3 444.524C375.3 456.421 365.655 466.065 353.758 466.065H249.152C248.658 473.722 248.04 481.372 247.297 489.013L246.658 495.588C245.619 506.278 234.268 512.68 224.582 508.038C185.206 489.167 149.559 463.344 119.356 431.809L118.711 431.136C112.957 425.128 112.957 415.654 118.711 409.647L119.356 408.973C149.559 377.439 185.206 351.615 224.582 332.745C234.268 328.103 245.619 334.505 246.658 345.195L247.297 351.769C248.04 359.411 248.658 367.061 249.152 374.718L353.758 374.718C365.655 374.718 375.3 384.362 375.3 396.259V444.524Z" fill="white"/>
</svg>
