<svg width="595" height="842" viewBox="0 0 595 842" fill="none" xmlns="http://www.w3.org/2000/svg">
<path fill-rule="evenodd" clip-rule="evenodd" d="M288.435 571.746C291.352 573.496 294.47 574.27 297.5 574.232C300.53 574.27 303.648 573.496 306.565 571.746L332.439 556.221C383.185 525.774 445.247 520.801 500.193 542.779C520.462 550.887 542.51 535.959 542.51 514.129V248.404C542.51 235.231 534.491 223.386 522.26 218.494C451.49 190.186 371.555 196.591 306.196 235.806L297.5 241.024L288.804 235.806C223.445 196.591 143.51 190.186 72.7396 218.494C60.5093 223.386 52.4896 235.231 52.4896 248.404V514.129C52.4896 535.959 74.5381 550.887 94.8072 542.779C149.753 520.801 211.815 525.774 262.561 556.221L288.435 571.746ZM86.6771 249.744V509.268C150.398 485.382 221.645 491.802 280.15 526.905L280.406 527.059V270.637L271.215 265.122C215.399 231.632 147.219 225.972 86.6771 249.744ZM314.85 526.905L314.594 527.059V270.637L323.785 265.122C379.601 231.632 447.781 225.972 508.323 249.744V509.268C444.602 485.382 373.355 491.802 314.85 526.905Z" fill="#9B9A9A"/>
<path d="M235.396 581.004C189.269 554.097 132.231 554.097 86.1036 581.004L83.7619 582.37C75.6073 587.127 72.8529 597.594 77.6098 605.749C82.3666 613.903 92.8334 616.658 100.988 611.901L103.33 610.535C138.812 589.837 182.688 589.837 218.17 610.535L242.951 624.99C276.659 644.653 318.341 644.653 352.049 624.99L376.83 610.535C412.312 589.837 456.188 589.837 491.67 610.535L494.012 611.901C502.167 616.658 512.633 613.903 517.39 605.749C522.147 597.594 519.393 587.127 511.238 582.37L508.896 581.004C462.769 554.097 405.731 554.097 359.604 581.004L334.823 595.46C311.76 608.913 283.24 608.913 260.177 595.46L235.396 581.004Z" fill="#9B9A9A"/>
</svg>
