<svg width="595" height="842" viewBox="0 0 595 842" fill="none" xmlns="http://www.w3.org/2000/svg">
<path d="M202.251 134.73C157.724 129.757 111.709 129.757 67.1819 134.73C38.536 137.929 15.3726 160.472 11.9945 189.335C6.66851 234.841 6.66851 280.813 11.9945 326.319C15.3726 355.182 38.5361 377.725 67.1819 380.924C111.709 385.897 157.724 385.897 202.251 380.924C230.897 377.725 254.06 355.182 257.438 326.319C262.764 280.813 262.764 234.841 257.438 189.335C254.06 160.472 230.897 137.929 202.251 134.73Z" fill="white"/>
<path d="M202.251 461.076C157.724 456.103 111.709 456.103 67.1819 461.076C38.536 464.275 15.3726 486.818 11.9945 515.681C6.66851 561.187 6.66851 607.159 11.9945 652.665C15.3726 681.528 38.5361 704.071 67.1819 707.27C111.709 712.243 157.724 712.243 202.251 707.27C230.897 704.071 254.06 681.528 257.438 652.665C262.764 607.159 262.764 561.187 257.438 515.681C254.06 486.818 230.897 464.275 202.251 461.076Z" fill="white"/>
<path d="M528.818 134.73C484.291 129.757 438.276 129.757 393.749 134.73C365.103 137.929 341.94 160.472 338.562 189.335C333.236 234.841 333.236 280.813 338.562 326.319C341.94 355.182 365.103 377.725 393.749 380.924C438.276 385.897 484.291 385.897 528.818 380.924C557.464 377.725 580.627 355.182 584.006 326.319C589.332 280.813 589.332 234.841 584.006 189.335C580.627 160.472 557.464 137.929 528.818 134.73Z" fill="white"/>
<path d="M528.818 461.076C484.291 456.103 438.276 456.103 393.749 461.076C365.103 464.275 341.94 486.818 338.562 515.681C333.236 561.187 333.236 607.159 338.562 652.665C341.94 681.528 365.103 704.071 393.749 707.27C438.276 712.243 484.291 712.243 528.818 707.27C557.464 704.071 580.627 681.528 584.006 652.665C589.332 607.159 589.332 561.187 584.006 515.681C580.627 486.818 557.464 464.275 528.818 461.076Z" fill="white"/>
</svg>
