<svg width="595" height="842" viewBox="0 0 595 842" fill="none" xmlns="http://www.w3.org/2000/svg">
<path fill-rule="evenodd" clip-rule="evenodd" d="M229.93 254.091C201.751 250.942 172.582 250.942 144.403 254.091C137.556 254.857 132.157 260.278 131.386 266.863C128.021 295.634 128.021 324.699 131.386 353.47C132.157 360.055 137.556 365.477 144.403 366.242C172.582 369.391 201.751 369.391 229.93 366.242C236.777 365.477 242.177 360.055 242.947 353.47C246.312 324.699 246.312 295.634 242.947 266.863C242.177 260.278 236.777 254.857 229.93 254.091ZM140.71 221.047C171.343 217.623 202.99 217.623 233.623 221.047C255.587 223.502 273.374 240.791 275.972 263C279.637 294.338 279.637 325.996 275.972 357.333C273.374 379.542 255.587 396.832 233.623 399.286C202.99 402.71 171.343 402.71 140.71 399.286C118.747 396.832 100.959 379.542 98.3615 357.333C94.6963 325.996 94.6963 294.338 98.3615 263C100.959 240.791 118.747 223.502 140.71 221.047Z" fill="#D9D9D9"/>
<path fill-rule="evenodd" clip-rule="evenodd" d="M229.93 475.758C201.751 472.609 172.582 472.609 144.403 475.758C137.556 476.523 132.157 481.945 131.386 488.53C128.021 517.301 128.021 546.366 131.386 575.137C132.157 581.722 137.556 587.143 144.403 587.909C172.582 591.058 201.751 591.058 229.93 587.909C236.777 587.143 242.177 581.722 242.947 575.137C246.312 546.366 246.312 517.301 242.947 488.53C242.177 481.945 236.777 476.523 229.93 475.758ZM140.71 442.714C171.343 439.29 202.99 439.29 233.623 442.714C255.587 445.168 273.374 462.458 275.972 484.667C279.637 516.004 279.637 547.662 275.972 578.999C273.374 601.209 255.587 618.498 233.623 620.953C202.99 624.377 171.343 624.377 140.71 620.953C118.747 618.498 100.959 601.209 98.3615 578.999C94.6963 547.662 94.6963 516.004 98.3615 484.667C100.959 462.458 118.747 445.168 140.71 442.714Z" fill="#D9D9D9"/>
<path fill-rule="evenodd" clip-rule="evenodd" d="M451.597 254.091C423.418 250.942 394.249 250.942 366.07 254.091C359.223 254.857 353.823 260.278 353.053 266.863C349.688 295.634 349.688 324.699 353.053 353.47C353.823 360.055 359.223 365.477 366.07 366.242C394.249 369.391 423.418 369.391 451.597 366.242C458.444 365.477 463.843 360.055 464.614 353.47C467.979 324.699 467.979 295.634 464.614 266.863C463.843 260.278 458.444 254.857 451.597 254.091ZM362.377 221.047C393.01 217.623 424.657 217.623 455.29 221.047C477.253 223.502 495.041 240.791 497.639 263C501.304 294.338 501.304 325.996 497.639 357.333C495.041 379.542 477.253 396.832 455.29 399.286C424.657 402.71 393.01 402.71 362.377 399.286C340.413 396.832 322.626 379.542 320.028 357.333C316.363 325.996 316.363 294.338 320.028 263C322.626 240.791 340.413 223.502 362.377 221.047Z" fill="#D9D9D9"/>
<path fill-rule="evenodd" clip-rule="evenodd" d="M451.597 475.758C423.418 472.609 394.249 472.609 366.07 475.758C359.223 476.523 353.823 481.945 353.053 488.53C349.688 517.301 349.688 546.366 353.053 575.137C353.823 581.722 359.223 587.143 366.07 587.909C394.249 591.058 423.418 591.058 451.597 587.909C458.444 587.143 463.843 581.722 464.614 575.137C467.979 546.366 467.979 517.301 464.614 488.53C463.843 481.945 458.444 476.523 451.597 475.758ZM362.377 442.714C393.01 439.29 424.657 439.29 455.29 442.714C477.253 445.168 495.041 462.458 497.639 484.667C501.304 516.004 501.304 547.662 497.639 578.999C495.041 601.209 477.253 618.498 455.29 620.953C424.657 624.377 393.01 624.377 362.377 620.953C340.413 618.498 322.626 601.209 320.028 578.999C316.363 547.662 316.363 516.004 320.028 484.667C322.626 462.458 340.413 445.168 362.377 442.714Z" fill="#D9D9D9"/>
</svg>
