<svg width="595" height="842" viewBox="0 0 595 842" fill="none" xmlns="http://www.w3.org/2000/svg">
<path d="M320.708 490.125C307.891 490.125 297.5 500.516 297.5 513.333C297.5 526.151 307.891 536.542 320.708 536.542C333.526 536.542 343.917 526.151 343.917 513.333C343.917 500.516 333.526 490.125 320.708 490.125Z" fill="#9B9A9A"/>
<path d="M251.083 536.542C238.266 536.542 227.875 546.932 227.875 559.75C227.875 572.568 238.266 582.958 251.083 582.958C263.901 582.958 274.292 572.568 274.292 559.75C274.292 546.932 263.901 536.542 251.083 536.542Z" fill="#9B9A9A"/>
<path fill-rule="evenodd" clip-rule="evenodd" d="M355.362 217.427L355.293 217.427H239.707L239.638 217.427H216.271C206.658 217.427 198.865 225.22 198.865 234.833C198.865 244.447 206.658 252.24 216.271 252.24H222.3V370.301C222.3 404.054 212.149 437.027 193.165 464.936L121.363 570.492C103.129 597.298 119.937 633.878 152.153 637.502C248.746 648.369 346.254 648.369 442.847 637.502C475.063 633.878 491.871 597.298 473.637 570.492L401.835 464.936C382.851 437.027 372.699 404.054 372.699 370.3V252.24H378.729C388.342 252.24 396.135 244.447 396.135 234.833C396.135 225.22 388.342 217.427 378.729 217.427H355.362ZM156.045 602.908C250.052 613.483 344.948 613.483 438.955 602.908C445.126 602.213 448.345 595.207 444.853 590.072L373.051 484.516C367.939 477.001 363.357 469.181 359.324 461.115H235.676C231.642 469.181 227.061 477.001 221.949 484.516L150.147 590.072C146.655 595.207 149.874 602.213 156.045 602.908ZM249.238 426.302H345.761C340.566 408.193 337.887 389.35 337.887 370.3V252.239L257.113 252.24V370.301C257.113 389.35 254.434 408.193 249.238 426.302Z" fill="#9B9A9A"/>
</svg>
