<svg width="595" height="842" viewBox="0 0 595 842" fill="none" xmlns="http://www.w3.org/2000/svg">
<path d="M298.5 275.313C314.206 275.313 326.938 288.045 326.938 303.751C326.938 319.456 314.206 332.188 298.5 332.188C282.795 332.188 270.063 319.456 270.063 303.751C270.063 288.045 282.795 275.313 298.5 275.313ZM298.5 392.063C314.206 392.063 326.938 404.795 326.938 420.501C326.938 436.206 314.206 448.938 298.5 448.938C282.795 448.938 270.063 436.206 270.063 420.501C270.063 404.795 282.795 392.063 298.5 392.063ZM298.5 508.813C314.206 508.813 326.938 521.545 326.938 537.251C326.938 552.956 314.206 565.688 298.5 565.688C282.795 565.688 270.063 552.956 270.063 537.251C270.063 521.545 282.795 508.813 298.5 508.813Z" fill="#A6A6A6" stroke="#A6A6A6" stroke-width="1.5"/>
</svg>
