<svg width="595" height="842" viewBox="0 0 595 842" fill="none" xmlns="http://www.w3.org/2000/svg">
<path fill-rule="evenodd" clip-rule="evenodd" d="M288.969 218.772C294.63 217.161 300.601 217.16 306.261 218.766C318.294 222.181 330.438 225.348 342.622 228.526C399.836 243.448 457.943 258.602 509.639 300.709L533.446 320.099C543.102 327.964 547.933 339.606 547.938 351.25V514C547.938 523.63 540.13 531.438 530.5 531.438C520.87 531.438 513.062 523.63 513.062 514V399.068L509.275 402.159C491.361 416.777 472.672 428.127 453.515 437.341C454.43 439.46 454.938 441.796 454.938 444.25V544.084C454.938 570.433 438.774 594.083 414.224 603.654L321.224 639.912C306.289 645.734 289.711 645.734 274.776 639.912L181.776 603.654C157.226 594.083 141.062 570.433 141.062 544.084V444.25C141.062 441.734 141.596 439.342 142.555 437.181C123.249 427.913 104.414 416.496 86.3609 401.791L62.5543 382.401C43.2415 366.671 43.2313 335.834 62.5274 320.087L86.7255 300.341C138.048 258.46 195.745 243.396 252.535 228.568C264.746 225.38 276.914 222.203 288.969 218.772ZM513.062 351.264C513.062 349.169 512.215 347.786 511.421 347.139L487.615 327.749C437.5 293.125 392.845 277.854 336.128 262.95C323.656 259.673 310.832 256.303 297.627 252.567C284.364 256.33 271.493 259.716 258.98 263.008C202.717 277.81 153.693 290.707 108.775 327.361L84.5767 347.108C83.7818 347.756 82.9366 349.142 82.9375 351.236C82.9384 353.331 83.7845 354.714 84.5786 355.36L108.385 374.751C153.684 411.646 203.155 424.646 259.872 439.55C272.344 442.827 285.167 446.197 298.373 449.933C311.635 446.17 324.505 442.784 337.017 439.493C393.28 424.691 442.307 411.793 487.225 375.139L511.423 355.392C512.217 354.744 513.062 353.355 513.062 351.264ZM343.465 473.932C369.035 467.256 394.789 460.531 420.062 451.333V544.084C420.062 556.061 412.715 566.811 401.557 571.161L308.556 607.419C301.768 610.065 294.232 610.065 287.443 607.419L194.443 571.161C183.285 566.811 175.938 556.061 175.938 544.084V451.135C201.484 460.44 227.522 467.231 253.378 473.974C265.562 477.152 277.706 480.319 289.739 483.734C295.399 485.34 301.37 485.339 307.031 483.728C319.085 480.298 331.255 477.12 343.465 473.932Z" fill="#D9D9D9"/>
</svg>
