<svg width="595" height="842" viewBox="0 0 595 842" fill="none" xmlns="http://www.w3.org/2000/svg">
<path d="M370.333 421C370.333 403.879 384.212 390 401.333 390C418.454 390 432.333 403.879 432.333 421C432.333 438.121 418.454 452 401.333 452C384.212 452 370.333 438.121 370.333 421Z" fill="#D9D9D9"/>
<path fill-rule="evenodd" clip-rule="evenodd" d="M472.454 310.93C458.861 278.986 428.824 256.023 393.081 252.261L379.609 250.844C311.567 243.684 242.939 244.156 175.002 252.251L166.076 253.315C131.587 257.425 104.261 284.37 99.667 318.798C90.6157 386.632 90.6157 455.368 99.667 523.203C104.261 557.63 131.587 584.576 166.076 588.685L175.002 589.749C242.939 597.845 311.567 598.317 379.609 591.157L393.081 589.739C428.824 585.978 458.861 563.015 472.454 531.071C493.932 524.676 510.325 506.056 513.016 483.049C517.837 441.824 517.837 400.177 513.016 358.951C510.325 335.945 493.932 317.324 472.454 310.93ZM376.364 281.674C310.622 274.755 244.312 275.212 178.671 283.034L169.744 284.097C149.308 286.533 133.117 302.499 130.395 322.898C121.706 388.011 121.706 453.99 130.395 519.103C133.117 539.502 149.308 555.468 169.744 557.903L178.671 558.967C244.312 566.789 310.622 567.245 376.364 560.327L389.836 558.909C407.414 557.06 422.967 548.395 433.745 535.534C402.577 537.351 370.994 536.539 340.196 533.097C313.963 530.165 292.747 509.508 289.652 483.049C284.83 441.824 284.83 400.177 289.652 358.951C292.747 332.493 313.963 311.835 340.196 308.903C370.994 305.461 402.577 304.649 433.745 306.467C422.967 293.605 407.414 284.941 389.836 283.091L376.364 281.674ZM448.399 338.637C448.412 338.717 448.424 338.796 448.437 338.875L448.561 339.679L452.667 339.041C454.791 339.252 456.912 339.475 459.028 339.712C471.168 341.068 480.835 350.661 482.225 362.552C486.767 401.385 486.767 440.615 482.225 479.448C480.835 491.34 471.168 500.932 459.028 502.289C456.911 502.525 454.791 502.749 452.666 502.959L448.561 502.322L448.437 503.125C448.424 503.205 448.412 503.284 448.399 503.363C413.707 506.502 378.129 506.144 343.639 502.289C331.5 500.932 321.833 491.34 320.442 479.448C315.9 440.615 315.9 401.385 320.442 362.552C321.833 350.661 331.5 341.068 343.639 339.712C378.129 335.857 413.707 335.499 448.399 338.637Z" fill="#D9D9D9"/>
</svg>
